<?xml version="1.0" encoding="UTF-8" standalone="no"?>
<!-- Created with Inkscape (http://www.inkscape.org/) -->

<svg
   width="22.846716mm"
   height="27.715258mm"
   viewBox="0 0 22.846716 27.715258"
   version="1.1"
   id="svg1"
   xml:space="preserve"
   xmlns="http://www.w3.org/2000/svg"
   xmlns:svg="http://www.w3.org/2000/svg"><defs
     id="defs1" /><g
     id="layer1"
     transform="translate(230.64808,72.878638)"><g
       id="g23"
       transform="translate(-46.075077,-28.255987)"><ellipse
         style="fill:#51948d;fill-opacity:0;fill-rule:evenodd;stroke:#003033;stroke-width:2.99595;stroke-linecap:square;stroke-opacity:1"
         id="path14"
         cx="-144.27098"
         cy="-36.813007"
         rx="0.42906868"
         ry="0.46339417" /><ellipse
         style="fill:#51948d;fill-opacity:0;fill-rule:evenodd;stroke:#003033;stroke-width:2.99595;stroke-linecap:square;stroke-opacity:1"
         id="path14-55"
         cx="-162.85825"
         cy="-5.9159799"
         rx="0.42906868"
         ry="0.46339417" /><path
         style="fill:#51948d;fill-opacity:0;fill-rule:evenodd;stroke:#003033;stroke-width:0.709;stroke-linecap:square;stroke-dasharray:none;stroke-opacity:1"
         d="m -145.52999,-35.73 c -3.675,3.734998 -7.35001,7.470001 -11.02501,11.205001 0.99,1.079998 1.98001,2.16 2.97001,3.24 0,0 4.545,-4.545 4.545,-4.545 0,0 3.06,3.24 3.06,3.24 -5.16,5.055 -10.32,10.110002 -15.48,15.1649992"
         id="path19" /><g
         id="g22"
         transform="translate(-1.53,4.2299999)"><ellipse
           style="fill:#51948d;fill-opacity:0;fill-rule:evenodd;stroke:#003033;stroke-width:2.99595;stroke-linecap:square;stroke-opacity:1"
           id="path14-1-6"
           cx="-127.75302"
           cy="-38.942619"
           rx="0.42906868"
           ry="0.46339417" /><path
           style="fill:#51948d;fill-opacity:0;fill-rule:evenodd;stroke:#003033;stroke-width:0.709001;stroke-linecap:square;stroke-dasharray:none;stroke-opacity:1"
           d="m -158.77376,-41.564384 c 2.12518,-2.085107 4.25036,-4.170215 6.37554,-6.255322 1.03323,1.048234 2.06647,2.09647 3.0997,3.144702 2.18496,-2.057681 4.36992,-4.115363 6.55488,-6.173044"
           id="path20"
           transform="translate(13.59,13.32)" /></g></g><g
       id="g28"
       transform="translate(-146.24382,-65.485158)"><g
         id="g26"><ellipse
           style="fill:#51948d;fill-opacity:0;fill-rule:evenodd;stroke:#003033;stroke-width:2.99595;stroke-linecap:square;stroke-opacity:1"
           id="path14-6-9"
           cx="-69.385048"
           cy="-5.4321094"
           rx="0.42906868"
           ry="0.46339417" /><ellipse
           style="fill:#51948d;fill-opacity:0;fill-rule:evenodd;stroke:#003033;stroke-width:2.99595;stroke-linecap:square;stroke-opacity:1"
           id="path14-1-6-3-5"
           cx="12.417038"
           cy="-79.197533"
           rx="0.42906868"
           ry="0.46339417"
           transform="matrix(0,1,1,0,0,0)" /><path
           style="fill:#51948d;fill-opacity:0;fill-rule:evenodd;stroke:#003033;stroke-width:0.709001;stroke-linecap:square;stroke-dasharray:none;stroke-opacity:1"
           d="m -155.03194,-38.064379 c 2.06553,2.058619 4.13106,4.117236 6.19659,6.175854 0,0 6.33745,-6.369584 6.33745,-6.369584 0,0 -3.15157,-3.12907 -3.15157,-3.12907 2.04983,-2.179273 4.09965,-4.358541 6.14948,-6.537818"
           id="path22-4"
           transform="matrix(0,1,1,0,-30.170587,150.64549)" /></g><g
         id="g27"><ellipse
           style="fill:#51948d;fill-opacity:0;fill-rule:evenodd;stroke:#003033;stroke-width:2.99595;stroke-linecap:square;stroke-opacity:1"
           id="path14-6-9-3"
           cx="-67.18924"
           cy="0.45974958"
           rx="0.42906868"
           ry="0.46339417" /><ellipse
           style="fill:#51948d;fill-opacity:0;fill-rule:evenodd;stroke:#003033;stroke-width:2.99595;stroke-linecap:square;stroke-opacity:1"
           id="path14-1-6-3-5-4"
           cx="9.0811529"
           cy="-82.442909"
           rx="0.42906868"
           ry="0.46339417"
           transform="matrix(0,1,1,0,0,0)" /><path
           style="fill:#51948d;fill-opacity:0;fill-rule:evenodd;stroke:#003033;stroke-width:0.709001;stroke-linecap:square;stroke-dasharray:none;stroke-opacity:1"
           d="m -146.16249,-34.497749 c 0.57453,-0.564026 1.14905,-1.128049 1.72358,-1.692073 0,0 -3.21521,-3.12907 -3.21521,-3.12907 2.63319,-2.752029 5.26638,-5.504055 7.89957,-8.256087"
           id="path22-4-1"
           transform="matrix(0,1,1,0,-33.797796,147.69144)" /></g><g
         id="g25"><ellipse
           style="fill:#51948d;fill-opacity:0;fill-rule:evenodd;stroke:#003033;stroke-width:2.99595;stroke-linecap:square;stroke-opacity:1"
           id="path14-6-9-3-4"
           cx="-71.870682"
           cy="10.505191"
           rx="0.42906868"
           ry="0.46339417" /><ellipse
           style="fill:#51948d;fill-opacity:0;fill-rule:evenodd;stroke:#003033;stroke-width:2.99595;stroke-linecap:square;stroke-opacity:1"
           id="path14-1-6-3-5-4-2"
           cx="18.394739"
           cy="-79.964897"
           rx="0.42906868"
           ry="0.46339417"
           transform="matrix(0,1,1,0,0,0)" /><path
           style="fill:#51948d;fill-opacity:0;fill-rule:evenodd;stroke:#003033;stroke-width:0.709001;stroke-linecap:square;stroke-dasharray:none;stroke-opacity:1"
           d="m -145.0449,-42.087215 c 1.76345,-1.829255 3.5269,-3.658508 5.29035,-5.487764"
           id="path22-4-1-7"
           transform="matrix(0,1,1,0,-31.319783,157.00503)" /></g></g></g></svg>
