<?xml version="1.0" encoding="UTF-8" standalone="no"?>
<!-- Created with Inkscape (http://www.inkscape.org/) -->

<svg
   width="37.429321mm"
   height="34.819767mm"
   viewBox="0 0 37.429321 34.819767"
   version="1.1"
   id="svg1"
   xml:space="preserve"
   xmlns="http://www.w3.org/2000/svg"
   xmlns:svg="http://www.w3.org/2000/svg"><defs
     id="defs1" /><g
     id="layer1"
     transform="translate(241.66194,68.303152)"><g
       id="g25"
       transform="translate(-76.876648,-29.528779)"><g
         id="g23"><ellipse
           style="fill:#51948d;fill-opacity:0;fill-rule:evenodd;stroke:#003033;stroke-width:2.99595;stroke-linecap:square;stroke-opacity:1"
           id="path14"
           cx="-144.27098"
           cy="-36.813007"
           rx="0.42906868"
           ry="0.46339417" /><ellipse
           style="fill:#51948d;fill-opacity:0;fill-rule:evenodd;stroke:#003033;stroke-width:2.99595;stroke-linecap:square;stroke-opacity:1"
           id="path14-55"
           cx="-162.85825"
           cy="-5.9159799"
           rx="0.42906868"
           ry="0.46339417" /><path
           style="fill:#51948d;fill-opacity:0;fill-rule:evenodd;stroke:#003033;stroke-width:0.709;stroke-linecap:square;stroke-dasharray:none;stroke-opacity:1"
           d="m -145.52999,-35.73 c -3.675,3.734998 -7.35001,7.470001 -11.02501,11.205001 0.99,1.079998 1.98001,2.16 2.97001,3.24 0,0 4.545,-4.545 4.545,-4.545 0,0 3.06,3.24 3.06,3.24 -5.16,5.055 -10.32,10.110002 -15.48,15.1649992"
           id="path19" /><g
           id="g22"
           transform="translate(-1.53,4.2299999)"><ellipse
             style="fill:#51948d;fill-opacity:0;fill-rule:evenodd;stroke:#003033;stroke-width:2.99595;stroke-linecap:square;stroke-opacity:1"
             id="path14-1-6"
             cx="-127.75302"
             cy="-38.942619"
             rx="0.42906868"
             ry="0.46339417" /><path
             style="fill:#51948d;fill-opacity:0;fill-rule:evenodd;stroke:#003033;stroke-width:0.709001;stroke-linecap:square;stroke-dasharray:none;stroke-opacity:1"
             d="m -158.77376,-41.564384 c 2.12518,-2.085107 4.25036,-4.170215 6.37554,-6.255322 1.03323,1.048234 2.06647,2.09647 3.0997,3.144702 2.18496,-2.057681 4.36992,-4.115363 6.55488,-6.173044"
             id="path20"
             transform="translate(13.59,13.32)" /></g></g><g
         id="g24"><ellipse
           style="fill:#51948d;fill-opacity:0;fill-rule:evenodd;stroke:#003033;stroke-width:2.99595;stroke-linecap:square;stroke-opacity:1"
           id="path14-6"
           cx="-141.63921"
           cy="-23.407797"
           rx="0.42906868"
           ry="0.46339417" /><ellipse
           style="fill:#51948d;fill-opacity:0;fill-rule:evenodd;stroke:#003033;stroke-width:2.99595;stroke-linecap:square;stroke-opacity:1"
           id="path14-1-6-3"
           cx="-7.7223964"
           cy="-150.68802"
           rx="0.42906868"
           ry="0.46339417"
           transform="matrix(0,1,1,0,0,0)" /><path
           style="fill:#51948d;fill-opacity:0;fill-rule:evenodd;stroke:#003033;stroke-width:0.709001;stroke-linecap:square;stroke-dasharray:none;stroke-opacity:1"
           d="m -152.55,-41.309999 c 0.57,-0.54 1.14,-1.079999 1.71,-1.619998 0,0 3.06001,3.239997 3.06001,3.239997 2.76,-2.744999 5.51999,-5.489993 8.28,-8.234997"
           id="path22"
           transform="matrix(0,1,1,0,-101.66107,130.50606)" /></g></g></g></svg>
