<?xml version="1.0" encoding="UTF-8" standalone="no"?>
<!-- Created with Inkscape (http://www.inkscape.org/) -->

<svg
   width="271.35678mm"
   height="242.84215mm"
   viewBox="0 0 271.35678 242.84215"
   version="1.1"
   id="svg1"
   xml:space="preserve"
   xmlns="http://www.w3.org/2000/svg"
   xmlns:svg="http://www.w3.org/2000/svg"><defs
     id="defs1" /><g
     id="layer1"
     transform="translate(-183.50423,-494.72102)"><g
       id="g6"
       transform="translate(-82.079999,-69.840001)"><g
         id="g1305-9-6-7-3"
         style="fill:none;stroke:#9f8c64;stroke-opacity:0.506456"
         transform="translate(667.44139,6.65458)"><path
           style="fill:none;fill-rule:evenodd;stroke:#9f8c64;stroke-width:1;stroke-linecap:round;stroke-dasharray:none;stroke-opacity:0.506456"
           d="m -215.46143,566.15772 c 63.36391,64.76274 58.71017,163.76691 -2.54016,222.90424"
           id="path344-2-8-3-7-8" /><path
           style="fill:none;fill-rule:evenodd;stroke:#9f8c64;stroke-width:1;stroke-linecap:round;stroke-dasharray:none;stroke-opacity:0.506456"
           d="m -201.53863,559.48239 c 64.1441,71.60165 57.11821,176.54105 -1.95582,237.14359"
           id="path344-2-2-6-7-8-0" /><path
           style="fill:none;fill-rule:evenodd;stroke:#9f8c64;stroke-width:1;stroke-linecap:round;stroke-dasharray:none;stroke-opacity:0.506456"
           d="m -236.79242,589.59778 c 39.09372,38.61476 40.03438,131.79517 -3.24553,174.1858"
           id="path344-2-5-50-8-3-8" /><path
           style="fill:none;fill-rule:evenodd;stroke:#9f8c64;stroke-width:1;stroke-linecap:round;stroke-dasharray:none;stroke-opacity:0.506456"
           d="m -226.57467,576.89736 c 54.7814,53.74364 52.76956,148.36136 -3.72119,201.63422"
           id="path344-2-2-0-2-8-8-8" /><path
           style="fill:none;fill-rule:evenodd;stroke:#9f8c64;stroke-width:1;stroke-linecap:round;stroke-dasharray:none;stroke-opacity:0.506456"
           d="m -186.03222,558.40659 c 58.00563,73.23716 48.15581,185.63355 -1.02402,241.53572"
           id="path344-2-5-6-8-2-3-0" /><path
           style="fill:none;fill-rule:evenodd;stroke:#9f8c64;stroke-width:1;stroke-linecap:round;stroke-dasharray:none;stroke-opacity:0.506456"
           d="m -166.76005,566.13261 c 43.35841,66.53712 30.14493,191.41456 -1.99146,234.11595"
           id="path344-2-2-0-1-60-9-7-6" /><path
           style="fill:none;fill-rule:evenodd;stroke:#9f8c64;stroke-width:1;stroke-linecap:round;stroke-dasharray:none;stroke-opacity:0.506456"
           d="m -231.22493,682.59646 c 56.19433,16.28454 89.47439,15.98458 94.87038,33.01003"
           id="path344-2-3-2-1-1-8" /><path
           style="fill:none;fill-rule:evenodd;stroke:#9f8c64;stroke-width:1;stroke-linecap:round;stroke-dasharray:none;stroke-opacity:0.506456"
           d="m -232.09598,676.86051 c 58.36879,13.30167 90.71765,10.18131 95.60673,31.01475"
           id="path344-2-2-4-4-3-0-1" /><path
           style="fill:none;fill-rule:evenodd;stroke:#9f8c64;stroke-width:1;stroke-linecap:round;stroke-dasharray:none;stroke-opacity:0.506456"
           d="m -229.25897,694.88528 c 50.87235,22.72707 83.08591,24.0952 93.80561,36.56478"
           id="path344-2-5-4-8-5-7-9" /><path
           style="fill:none;fill-rule:evenodd;stroke:#9f8c64;stroke-width:1;stroke-linecap:round;stroke-dasharray:none;stroke-opacity:0.506456"
           d="m -230.28036,688.42864 c 52.84095,18.99705 87.90734,21.78239 94.31841,34.7937"
           id="path344-2-2-0-6-65-9-3-8" /><path
           style="fill:none;fill-rule:evenodd;stroke:#9f8c64;stroke-width:1;stroke-linecap:round;stroke-dasharray:none;stroke-opacity:0.506456"
           d="m -232.51662,671.49548 c 59.39816,10.29169 91.19187,4.48284 96.27768,28.85975"
           id="path344-2-5-6-0-0-8-4-9" /><path
           style="fill:none;fill-rule:evenodd;stroke:#9f8c64;stroke-width:1;stroke-linecap:round;stroke-dasharray:none;stroke-opacity:0.506456"
           d="m -232.64266,666.02343 c 59.46553,7.11583 90.9419,-1.52143 97.05276,26.27979"
           id="path344-2-2-0-1-6-9-4-9-7" /><path
           style="fill:none;fill-rule:evenodd;stroke:#9f8c64;stroke-width:1;stroke-linecap:round;stroke-dasharray:none;stroke-opacity:0.506456"
           d="m -234.23335,724.76679 c 30.57385,38.74957 61.20768,48.5869 93.99914,46.03996"
           id="path344-2-3-4-0-0-65-2" /><path
           style="fill:none;fill-rule:evenodd;stroke:#9f8c64;stroke-width:1;stroke-linecap:round;stroke-dasharray:none;stroke-opacity:0.506456"
           d="m -231.41815,715.65572 c 38.80152,35.53783 66.56352,41.92516 94.04279,43.37932"
           id="path344-2-2-4-9-0-7-1-2" /><path
           style="fill:none;fill-rule:evenodd;stroke:#9f8c64;stroke-width:1;stroke-linecap:round;stroke-dasharray:none;stroke-opacity:0.506456"
           d="m -239.35989,734.51518 c 22.18575,42.32563 54.90466,55.13014 94.227,49.05925"
           id="path344-2-2-0-6-3-6-6-09-8" /><path
           style="fill:none;fill-rule:evenodd;stroke:#9f8c64;stroke-width:1;stroke-linecap:round;stroke-dasharray:none;stroke-opacity:0.506456"
           d="m -230.34392,707.7123 c 47.8519,33.64388 69.1525,34.54936 94.29905,41.03637"
           id="path344-2-5-6-0-7-1-3-9-2" /><path
           style="fill:none;fill-rule:evenodd;stroke:#9f8c64;stroke-width:1;stroke-linecap:round;stroke-dasharray:none;stroke-opacity:0.506456"
           d="m -230.49556,700.23548 c 47.16648,26.06588 80.27529,30.22822 94.79243,38.86917"
           id="path344-2-2-0-1-6-8-3-6-6-8" /><path
           style="fill:none;fill-rule:evenodd;stroke:#9f8c64;stroke-width:1;stroke-linecap:round;stroke-dasharray:none;stroke-opacity:0.506456"
           d="m -230.55443,629.13917 c 39.5113,-14.2317 69.40644,-43.70276 98.50329,1.59177"
           id="path344-2-3-1-89-1-83-9" /><path
           style="fill:none;fill-opacity:1;fill-rule:evenodd;stroke:#9f8c64;stroke-width:1;stroke-linecap:round;stroke-dasharray:none;stroke-opacity:0.506456"
           d="m -233.3953,621.01013 c 32.93204,-18.40737 62.23525,-52.81081 98.38984,-5.63863"
           id="path344-2-2-4-3-3-5-4-0" /><path
           style="fill:none;fill-rule:evenodd;stroke:#9f8c64;stroke-width:1;stroke-linecap:round;stroke-dasharray:none;stroke-opacity:0.506456"
           d="m -229.11582,643.22851 c 49.75294,-6.53905 80.1444,-27.71292 97.99789,12.96557"
           id="path344-2-5-4-5-4-4-84-7" /><path
           style="fill:none;fill-rule:evenodd;stroke:#9f8c64;stroke-width:1;stroke-linecap:round;stroke-dasharray:none;stroke-opacity:0.506456"
           d="m -229.37763,636.37683 c 45.02586,-10.3505 75.25291,-35.53322 98.37728,7.57783"
           id="path344-2-2-0-6-9-4-2-9-8" /><path
           style="fill:none;fill-opacity:1;fill-rule:evenodd;stroke:#9f8c64;stroke-width:1;stroke-linecap:round;stroke-dasharray:none;stroke-opacity:0.506456"
           d="m -238.21325,612.31149 c 25.69136,-22.67412 54.05358,-62.36598 97.99028,-13.56907"
           id="path344-2-5-6-0-8-6-0-9-1" /><path
           style="fill:none;fill-rule:evenodd;stroke:#9f8c64;stroke-width:1;stroke-linecap:round;stroke-dasharray:none;stroke-opacity:0.506456"
           d="m -232.78964,660.53819 c 58.65466,3.92824 90.08067,-7.6685 98.11342,23.08693"
           id="path344-2-2-4-9-7-0-9-2-5" /><path
           style="fill:none;fill-rule:evenodd;stroke:#9f8c64;stroke-width:1;stroke-linecap:round;stroke-dasharray:none;stroke-opacity:0.506456"
           d="m -232.49229,676.8183 c 58.4626,13.38824 90.9781,10.32876 95.96432,30.96488"
           id="path344-2-5-4-6-6-6-7-5-8" /><path
           style="fill:none;fill-rule:evenodd;stroke:#9f8c64;stroke-width:1;stroke-linecap:round;stroke-dasharray:none;stroke-opacity:0.506456"
           d="m -232.17034,655.07565 c 56.7541,0.62804 88.00853,-14.05313 98.61307,19.66693"
           id="path344-2-5-6-0-7-6-6-3-5-6" /><path
           style="fill:none;fill-rule:evenodd;stroke:#9f8c64;stroke-width:1;stroke-linecap:round;stroke-dasharray:none;stroke-opacity:0.506456"
           d="m -231.54354,649.18558 c 53.83377,-2.88853 84.94831,-21.00574 99.05003,15.48235"
           id="path344-2-2-0-1-6-8-1-1-7-3-1" /></g><g
         id="g1305-9-6-7-3-8"
         style="fill:none;stroke:#9f8c64;stroke-opacity:0.505882"
         transform="matrix(-1,0,0,1,135.08389,6.65442)"><path
           style="fill:none;fill-rule:evenodd;stroke:#9f8c64;stroke-width:1;stroke-linecap:round;stroke-dasharray:none;stroke-opacity:0.505882"
           d="m -215.46143,566.15772 c 63.36391,64.76274 58.71017,163.76691 -2.54016,222.90424"
           id="path344-2-8-3-7-8-6" /><path
           style="fill:none;fill-rule:evenodd;stroke:#9f8c64;stroke-width:1;stroke-linecap:round;stroke-dasharray:none;stroke-opacity:0.505882"
           d="m -201.53863,559.48239 c 64.1441,71.60165 57.11821,176.54105 -1.95582,237.14359"
           id="path344-2-2-6-7-8-0-2" /><path
           style="fill:none;fill-rule:evenodd;stroke:#9f8c64;stroke-width:1;stroke-linecap:round;stroke-dasharray:none;stroke-opacity:0.505882"
           d="m -236.79242,589.59778 c 39.09372,38.61476 40.03438,131.79517 -3.24553,174.1858"
           id="path344-2-5-50-8-3-8-6" /><path
           style="fill:none;fill-rule:evenodd;stroke:#9f8c64;stroke-width:1;stroke-linecap:round;stroke-dasharray:none;stroke-opacity:0.505882"
           d="m -226.57467,576.89736 c 54.7814,53.74364 52.76956,148.36136 -3.72119,201.63422"
           id="path344-2-2-0-2-8-8-8-5" /><path
           style="fill:none;fill-rule:evenodd;stroke:#9f8c64;stroke-width:1;stroke-linecap:round;stroke-dasharray:none;stroke-opacity:0.505882"
           d="m -186.03222,558.40659 c 58.00563,73.23716 48.15581,185.63355 -1.02402,241.53572"
           id="path344-2-5-6-8-2-3-0-3" /><path
           style="fill:none;fill-rule:evenodd;stroke:#9f8c64;stroke-width:1;stroke-linecap:round;stroke-dasharray:none;stroke-opacity:0.505882"
           d="m -166.76005,566.13261 c 43.35841,66.53712 30.14493,191.41456 -1.99146,234.11595"
           id="path344-2-2-0-1-60-9-7-6-9" /><path
           style="fill:none;fill-rule:evenodd;stroke:#9f8c64;stroke-width:1;stroke-linecap:round;stroke-dasharray:none;stroke-opacity:0.505882"
           d="m -231.22493,682.59646 c 56.19433,16.28454 89.47439,15.98458 94.87038,33.01003"
           id="path344-2-3-2-1-1-8-2" /><path
           style="fill:none;fill-rule:evenodd;stroke:#9f8c64;stroke-width:1;stroke-linecap:round;stroke-dasharray:none;stroke-opacity:0.505882"
           d="m -232.09598,676.86051 c 58.36879,13.30167 90.71765,10.18131 95.60673,31.01475"
           id="path344-2-2-4-4-3-0-1-4" /><path
           style="fill:none;fill-rule:evenodd;stroke:#9f8c64;stroke-width:1;stroke-linecap:round;stroke-dasharray:none;stroke-opacity:0.505882"
           d="m -229.25897,694.88528 c 50.87235,22.72707 83.08591,24.0952 93.80561,36.56478"
           id="path344-2-5-4-8-5-7-9-6" /><path
           style="fill:none;fill-rule:evenodd;stroke:#9f8c64;stroke-width:1;stroke-linecap:round;stroke-dasharray:none;stroke-opacity:0.505882"
           d="m -230.28036,688.42864 c 52.84095,18.99705 87.90734,21.78239 94.31841,34.7937"
           id="path344-2-2-0-6-65-9-3-8-1" /><path
           style="fill:none;fill-rule:evenodd;stroke:#9f8c64;stroke-width:1;stroke-linecap:round;stroke-dasharray:none;stroke-opacity:0.505882"
           d="m -232.51662,671.49548 c 59.39816,10.29169 91.19187,4.48284 96.27768,28.85975"
           id="path344-2-5-6-0-0-8-4-9-8" /><path
           style="fill:none;fill-rule:evenodd;stroke:#9f8c64;stroke-width:1;stroke-linecap:round;stroke-dasharray:none;stroke-opacity:0.505882"
           d="m -232.64266,666.02343 c 59.46553,7.11583 90.9419,-1.52143 97.05276,26.27979"
           id="path344-2-2-0-1-6-9-4-9-7-2" /><path
           style="fill:none;fill-rule:evenodd;stroke:#9f8c64;stroke-width:1;stroke-linecap:round;stroke-dasharray:none;stroke-opacity:0.505882"
           d="m -234.23335,724.76679 c 30.57385,38.74957 61.20768,48.5869 93.99914,46.03996"
           id="path344-2-3-4-0-0-65-2-1" /><path
           style="fill:none;fill-rule:evenodd;stroke:#9f8c64;stroke-width:1;stroke-linecap:round;stroke-dasharray:none;stroke-opacity:0.505882"
           d="m -231.41815,715.65572 c 38.80152,35.53783 66.56352,41.92516 94.04279,43.37932"
           id="path344-2-2-4-9-0-7-1-2-1" /><path
           style="fill:none;fill-rule:evenodd;stroke:#9f8c64;stroke-width:1;stroke-linecap:round;stroke-dasharray:none;stroke-opacity:0.505882"
           d="m -239.35989,734.51518 c 22.18575,42.32563 54.90466,55.13014 94.227,49.05925"
           id="path344-2-2-0-6-3-6-6-09-8-9" /><path
           style="fill:none;fill-rule:evenodd;stroke:#9f8c64;stroke-width:1;stroke-linecap:round;stroke-dasharray:none;stroke-opacity:0.505882"
           d="m -230.34392,707.7123 c 47.8519,33.64388 69.1525,34.54936 94.29905,41.03637"
           id="path344-2-5-6-0-7-1-3-9-2-7" /><path
           style="fill:none;fill-rule:evenodd;stroke:#9f8c64;stroke-width:1;stroke-linecap:round;stroke-dasharray:none;stroke-opacity:0.505882"
           d="m -230.49556,700.23548 c 47.16648,26.06588 80.27529,30.22822 94.79243,38.86917"
           id="path344-2-2-0-1-6-8-3-6-6-8-6" /><path
           style="fill:none;fill-rule:evenodd;stroke:#9f8c64;stroke-width:1;stroke-linecap:round;stroke-dasharray:none;stroke-opacity:0.505882"
           d="m -230.55443,629.13917 c 39.5113,-14.2317 69.40644,-43.70276 98.50329,1.59177"
           id="path344-2-3-1-89-1-83-9-2" /><path
           style="fill:none;fill-opacity:1;fill-rule:evenodd;stroke:#9f8c64;stroke-width:1;stroke-linecap:round;stroke-dasharray:none;stroke-opacity:0.505882"
           d="m -233.3953,621.01013 c 32.93204,-18.40737 62.23525,-52.81081 98.38984,-5.63863"
           id="path344-2-2-4-3-3-5-4-0-9" /><path
           style="fill:none;fill-rule:evenodd;stroke:#9f8c64;stroke-width:1;stroke-linecap:round;stroke-dasharray:none;stroke-opacity:0.505882"
           d="m -229.11582,643.22851 c 49.75294,-6.53905 80.1444,-27.71292 97.99789,12.96557"
           id="path344-2-5-4-5-4-4-84-7-5" /><path
           style="fill:none;fill-rule:evenodd;stroke:#9f8c64;stroke-width:1;stroke-linecap:round;stroke-dasharray:none;stroke-opacity:0.505882"
           d="m -229.37763,636.37683 c 45.02586,-10.3505 75.25291,-35.53322 98.37728,7.57783"
           id="path344-2-2-0-6-9-4-2-9-8-2" /><path
           style="fill:none;fill-opacity:1;fill-rule:evenodd;stroke:#9f8c64;stroke-width:1;stroke-linecap:round;stroke-dasharray:none;stroke-opacity:0.505882"
           d="m -238.21325,612.31149 c 25.69136,-22.67412 54.05358,-62.36598 97.99028,-13.56907"
           id="path344-2-5-6-0-8-6-0-9-1-0" /><path
           style="fill:none;fill-rule:evenodd;stroke:#9f8c64;stroke-width:1;stroke-linecap:round;stroke-dasharray:none;stroke-opacity:0.505882"
           d="m -232.78964,660.53819 c 58.65466,3.92824 90.08067,-7.6685 98.11342,23.08693"
           id="path344-2-2-4-9-7-0-9-2-5-0" /><path
           style="fill:none;fill-rule:evenodd;stroke:#9f8c64;stroke-width:1;stroke-linecap:round;stroke-dasharray:none;stroke-opacity:0.505882"
           d="m -232.49229,676.8183 c 58.4626,13.38824 90.9781,10.32876 95.96432,30.96488"
           id="path344-2-5-4-6-6-6-7-5-8-3" /><path
           style="fill:none;fill-rule:evenodd;stroke:#9f8c64;stroke-width:1;stroke-linecap:round;stroke-dasharray:none;stroke-opacity:0.505882"
           d="m -232.17034,655.07565 c 56.7541,0.62804 88.00853,-14.05313 98.61307,19.66693"
           id="path344-2-5-6-0-7-6-6-3-5-6-9" /><path
           style="fill:none;fill-rule:evenodd;stroke:#9f8c64;stroke-width:1;stroke-linecap:round;stroke-dasharray:none;stroke-opacity:0.505882"
           d="m -231.54354,649.18558 c 53.83377,-2.88853 84.94831,-21.00574 99.05003,15.48235"
           id="path344-2-2-0-1-6-8-1-1-7-3-1-1" /></g></g><g
       id="g3-1-6"
       transform="matrix(0.20739752,0.6533966,-0.6533966,0.20739752,688.24666,671.05013)"><path
         style="fill:none;fill-rule:evenodd;stroke:#003033;stroke-width:1;stroke-linecap:round;stroke-dasharray:none;stroke-opacity:1"
         d="m -192.04156,578.18747 c 0,0 7.73076,6.95955 6.75706,18.8916 -1.26007,15.44122 1.17094,41.6699 3.86293,52.76327 4.83231,19.91338 2.24735,33.85512 2.24735,33.85512"
         id="path344-2-2-0-1-6-1-7-1-0" /><path
         style="fill:none;fill-rule:evenodd;stroke:#003033;stroke-width:1;stroke-linecap:round;stroke-dasharray:none;stroke-opacity:1"
         d="m -180.99745,681.40828 1.63583,3.57162 2.76024,-3.41248"
         id="path1307-5-3-6" /><path
         style="fill:none;fill-rule:evenodd;stroke:#003033;stroke-width:1;stroke-linecap:round;stroke-dasharray:none;stroke-opacity:1"
         d="m -189.06459,578.64095 -3.63656,-1.48589 0.32136,4.37729"
         id="path1307-5-1-8-6" /></g><path
       style="fill:none;fill-rule:evenodd;stroke:#003033;stroke-width:1;stroke-linecap:round;stroke-dasharray:none;stroke-opacity:1"
       d="m 211.87533,636.91628 c 0,0 21.00128,-12.41196 23.50537,-15.84193 4.20487,-5.75962 8.42534,-28.43054 7.57775,-34.92605 -0.40018,-3.06677 -12.34143,-14.51896 -12.34143,-14.51896"
       id="path344-2-2-0-1-6-1-4" /><path
       style="fill:none;fill-rule:evenodd;stroke:#003033;stroke-width:1;stroke-linecap:round;stroke-dasharray:none;stroke-opacity:1"
       d="m 233.73917,571.58506 -3.89139,-0.538 1.39644,4.161"
       id="path1307-2" /><path
       style="fill:none;fill-rule:evenodd;stroke:#003033;stroke-width:1;stroke-linecap:round;stroke-dasharray:none;stroke-opacity:1"
       d="m 212.94984,633.87393 -1.9796,3.39317 4.37922,0.29363"
       id="path1307-7-7" /><g
       id="g8"><path
         style="fill:none;fill-rule:evenodd;stroke:#003033;stroke-width:1;stroke-linecap:round;stroke-dasharray:none;stroke-opacity:1"
         d="m 389.9134,659.99045 c 0,0 -0.8062,5.16712 -1.65199,7.6271 -0.58482,1.70095 -2.34231,4.86116 -2.34231,4.86116"
         id="path344-2-2-0-1-6-1-4-2-9" /><path
         style="fill:none;fill-rule:evenodd;stroke:#003033;stroke-width:1;stroke-linecap:round;stroke-dasharray:none;stroke-opacity:1"
         d="m 393.4802,647.71279 c 0,0 0.15949,3.90901 -0.32626,5.77482 -0.4585,1.76117 -2.38916,4.90911 -2.38916,4.90911"
         id="path344-2-2-0-1-6-1-4-2-9-8" /><path
         style="fill:none;fill-rule:evenodd;stroke:#003033;stroke-width:1;stroke-linecap:round;stroke-dasharray:none;stroke-opacity:1"
         d="m 394.43642,630.92166 c 0,0 -2.11145,5.16559 -2.35221,7.90383 -0.18014,2.0488 0.70101,6.13017 0.70101,6.13017"
         id="path344-2-2-0-1-6-1-4-2-9-8-2" /><path
         style="fill:none;fill-rule:evenodd;stroke:#003033;stroke-width:1;stroke-linecap:round;stroke-dasharray:none;stroke-opacity:1"
         d="m 396.26141,613.35128 c 0,0 1.70992,3.06325 0.95334,8.52412 -0.30642,2.2117 -1.74165,6.46811 -1.74165,6.46811"
         id="path344-2-2-0-1-6-1-4-2-9-8-2-2" /><path
         style="fill:none;fill-rule:evenodd;stroke:#003033;stroke-width:1;stroke-linecap:round;stroke-dasharray:none;stroke-opacity:1"
         d="m 395.36295,594.76912 c 0,0 -0.96547,6.67961 -0.84871,10.03429 0.079,2.26906 1.04453,6.73074 1.04453,6.73074"
         id="path344-2-2-0-1-6-1-4-2-9-8-2-2-5" /><path
         style="fill:none;fill-rule:evenodd;stroke:#003033;stroke-width:1;stroke-linecap:round;stroke-dasharray:none;stroke-opacity:1"
         d="m 397.06182,595.55912 -0.41825,-3.90607 -3.70025,2.36053"
         id="path1307-7-7-3" /><path
         style="fill:none;fill-rule:evenodd;stroke:#003033;stroke-width:1;stroke-linecap:round;stroke-dasharray:none;stroke-opacity:1"
         d="m 387.79516,673.34993 -3.56075,1.65932 0.11015,-4.38769"
         id="path1307-7-7-3-9" /></g></g></svg>
