<?xml version="1.0" encoding="UTF-8" standalone="no"?>
<!-- Created with Inkscape (http://www.inkscape.org/) -->

<svg
   width="110.8993mm"
   height="74.978134mm"
   viewBox="0 0 110.8993 74.978134"
   version="1.1"
   id="svg1"
   xml:space="preserve"
   xmlns="http://www.w3.org/2000/svg"
   xmlns:svg="http://www.w3.org/2000/svg"><defs
     id="defs1" /><g
     id="layer1"
     transform="translate(-455.85507,-888.03893)"><path
       style="fill:#000000;fill-opacity:0;fill-rule:evenodd;stroke:#414141;stroke-width:3.8;stroke-linecap:square;stroke-dasharray:none;stroke-opacity:1"
       d="m 501.67083,890.0164 h 3.32074 l -0.003,71.06429 -3.17112,0.003 C 488.46487,937.4686 474.47977,913.58792 460.97627,890.0164 h -3.20036 l -0.0203,71.06774 4.02517,6.3e-4"
       id="path14-5-2-0-6-9-6-9" /><path
       style="fill:#000000;fill-opacity:0;fill-rule:evenodd;stroke:#414141;stroke-width:3.8;stroke-linecap:square;stroke-dasharray:none;stroke-opacity:1"
       d="m 564.81065,961.07356 -3.40983,0.003 C 548.04824,937.46147 534.06314,913.58792 520.55964,890.0164 h -3.20036 l -0.0203,71.06061 4.02517,6.3e-4"
       id="path14-5-2-0-6-9-6-3-9" /><path
       style="fill:#000000;fill-opacity:0;fill-rule:evenodd;stroke:#414141;stroke-width:3.8;stroke-linecap:square;stroke-dasharray:none;stroke-opacity:1"
       d="m 545.16692,961.1168 -4.60058,-6.3e-4 V 890.0164 c 11.28261,-0.17414 24.24431,0 24.24431,0 0,0 0.0982,24.50995 0,36.57964 -7.88529,0 -13.67564,0.0636 -24.24431,0.0636"
       id="path14-5-2-0-6-9-6-3-5-8" /><path
       style="fill:#000000;fill-opacity:0;fill-rule:evenodd;stroke:#414141;stroke-width:3.8;stroke-linecap:square;stroke-dasharray:none;stroke-opacity:1"
       d="m 541.4344,927.14738 -24.1133,-0.002"
       id="path14-5-1-79-0-1-8-0-1" /><path
       style="fill:#000000;fill-opacity:0;fill-rule:evenodd;stroke:#414141;stroke-width:3.8;stroke-linecap:square;stroke-dasharray:none;stroke-opacity:1"
       d="M 516.16165,960.34582 475.0209,890.0164 h -3.18732"
       id="path14-5-1-7-5-6-8-4-2-8" /></g></svg>
